<?xml version="1.0" encoding="iso-8859-1"?>
<!-- Generator: Adobe Illustrator 19.0.0, SVG Export Plug-In . SVG Version: 6.00 Build 0)  -->
<svg version="1.1" id="Layer_1" xmlns="http://www.w3.org/2000/svg" xmlns:xlink="http://www.w3.org/1999/xlink" x="0px" y="0px"
	 viewBox="0 0 512 512" style="enable-background:new 0 0 512 512;" xml:space="preserve">
<path style="fill:#FFFFFF;" d="M256,504C119.256,504,8,392.752,8,256S119.256,8,256,8c136.752,0,248,111.248,248,248
	S392.752,504,256,504z"/>
<path style="fill:#E21B1B;" d="M256,16c132.336,0,240,107.664,240,240S388.336,496,256,496S16,388.336,16,256S123.664,16,256,16
	 M256,0C114.616,0,0,114.616,0,256s114.616,256,256,256s256-114.616,256-256S397.384,0,256,0L256,0z"/>
<path style="fill:#FFFFFF;" d="M256,467.896C139.16,467.896,44.104,372.84,44.104,256S139.16,44.104,256,44.104
	S467.896,139.16,467.896,256S372.84,467.896,256,467.896z"/>
<path style="fill:#E2E2E2;" d="M256,48.104c114.632,0,207.896,93.264,207.896,207.896S370.632,463.896,256,463.896
	S48.104,370.632,48.104,256S141.368,48.104,256,48.104 M256,40.104C136.76,40.104,40.104,136.76,40.104,256
	S136.76,471.896,256,471.896S471.896,375.24,471.896,256S375.24,40.104,256,40.104L256,40.104z"/>
<path d="M332.152,162.744h-19.76v-44.272c0-5.408-4.432-9.808-9.88-9.808h-93.024c-5.448,0-9.88,4.4-9.88,9.808v44.272h-19.76
	v-44.272c0-16.224,13.296-29.424,29.64-29.424h93.024c16.344,0,29.64,13.2,29.64,29.424L332.152,162.744L332.152,162.744z"/>
<path style="fill:#E21B1B;" d="M142.336,151.256l-44.4,212.896h316.136l-44.4-212.896L142.336,151.256L142.336,151.256z"/>
<path d="M208.248,226.44c-9.528,0-17.248-7.672-17.248-17.144c0-9.464,7.72-17.144,17.248-17.144s17.248,7.672,17.248,17.144
	S217.776,226.44,208.248,226.44z M303.752,226.44c-9.528,0-17.248-7.672-17.248-17.144c0-9.464,7.72-17.144,17.248-17.144
	c9.528,0,17.248,7.672,17.248,17.144S313.272,226.44,303.752,226.44z"/>
<g>
</g>
<g>
</g>
<g>
</g>
<g>
</g>
<g>
</g>
<g>
</g>
<g>
</g>
<g>
</g>
<g>
</g>
<g>
</g>
<g>
</g>
<g>
</g>
<g>
</g>
<g>
</g>
<g>
</g>
</svg>
